<?xml version="1.0" encoding="UTF-8"?><svg id="Layer_1" xmlns="http://www.w3.org/2000/svg" viewBox="0 0 128 128"><defs><style>.cls-1{fill-rule:evenodd;}</style></defs><g><g id="Rectangle_3"><rect x="16.91" y="74.46" width="17.44" height="17.44"/></g><g id="Rectangle_3_copy"><rect x="36.1" y="74.46" width="17.44" height="17.44"/></g><g id="Rectangle_3_copy_2"><rect x="55.28" y="74.46" width="17.44" height="17.44"/></g><g id="Rectangle_3_copy_3"><rect x="16.91" y="55.28" width="17.44" height="17.44"/></g><g id="Rectangle_3_copy_4"><rect x="36.1" y="55.28" width="17.44" height="17.44"/></g><g id="Rectangle_3_copy_6"><rect x="16.91" y="36.1" width="17.44" height="17.44"/></g><g id="Rectangle_3_copy_7"><rect x="36.1" y="36.1" width="17.44" height="17.44"/></g><g id="Rectangle_3_copy_8"><rect x="55.28" y="36.1" width="17.44" height="17.44"/></g><g id="Rectangle_3_copy_9"><rect x="74.46" y="74.46" width="17.44" height="17.44"/></g><g id="Rectangle_3_copy_10"><rect x="74.46" y="93.65" width="17.44" height="17.44"/></g><g id="Rectangle_3_copy_11"><rect x="93.65" y="74.46" width="17.44" height="17.44"/></g><g id="Rectangle_3_copy_12"><rect x="93.65" y="55.28" width="17.44" height="17.44"/></g><g id="Rectangle_3_copy_13"><rect x="74.46" y="55.28" width="17.44" height="17.44"/></g><g id="Rectangle_3_copy_14"><rect x="55.28" y="16.91" width="17.44" height="17.44"/></g></g><path class="cls-1" d="M92.84,16.91s2.27,4.42,2.63,4.9c.48,.84,.6,1.07,1.67,.48,1.2-.72,2.27-1.32,2.27-1.32,0,0-1.67,7.53-1.91,8.37-.12,.84,.48,1.55,1.43,.72,.48-.36,3.35-3.59,3.59-3.82,0,0,.84,1.91,1.08,2.27,.12,.24,.24,.36,.72,.24,.48-.12,3.7-.6,3.7-.6,0,0-1.07,3.59-1.2,4.18-.12,.48-.24,1.32,1.43,2.03,0,0-6.57,5.74-7.05,6.1-.48,.48-.6,.6-.36,1.07,.12,.48,.84,2.87,.84,2.87,0,0-6.34-1.43-7.05-1.55-.72-.24-1.08,0-1.08,.6v7.77s-1.43,0-1.43,0c0,0,0-7.29,0-7.77,0-.6-.36-.84-1.08-.6-.72,.12-7.05,1.55-7.05,1.55,0,0,.72-2.39,.84-2.87,.12-.48,0-.6-.48-1.07-.48-.36-7.05-6.1-7.05-6.1,1.79-.72,1.67-1.55,1.55-2.03-.24-.6-1.32-4.18-1.32-4.18,0,0,3.35,.48,3.82,.6,.36,.12,.6,0,.72-.24,.24-.36,1.08-2.27,1.08-2.27,.24,.24,3.11,3.47,3.47,3.82,1.07,.84,1.67,.12,1.43-.72-.12-.84-1.79-8.37-1.79-8.37,0,0,1.08,.6,2.15,1.31,1.19,.6,1.31,.36,1.79-.48,.36-.48,2.63-4.9,2.63-4.9h0Z"/></svg>