<?xml version="1.0" encoding="UTF-8"?><svg id="Layer_1" xmlns="http://www.w3.org/2000/svg" viewBox="0 0 345.46 144.46"><defs><style>.cls-1{fill:none;}.cls-2{fill-rule:evenodd;}</style></defs><g><g id="Rectangle_3"><rect x="31.73" y="81.23" width="15" height="15"/></g><g id="Rectangle_3_copy"><rect x="48.23" y="81.23" width="15" height="15"/></g><g id="Rectangle_3_copy_2"><rect x="64.73" y="81.23" width="15" height="15"/></g><g id="Rectangle_3_copy_3"><rect x="31.73" y="64.73" width="15" height="15"/></g><g id="Rectangle_3_copy_4"><rect x="48.23" y="64.73" width="15" height="15"/></g><g id="Rectangle_3_copy_6"><rect x="31.73" y="48.23" width="15" height="15"/></g><g id="Rectangle_3_copy_7"><rect x="48.23" y="48.23" width="15" height="15"/></g><g id="Rectangle_3_copy_8"><rect x="64.73" y="48.23" width="15" height="15"/></g><g id="Rectangle_3_copy_9"><rect x="81.23" y="81.23" width="15" height="15"/></g><g id="Rectangle_3_copy_10"><rect x="81.23" y="97.73" width="15" height="15"/></g><g id="Rectangle_3_copy_11"><rect x="97.73" y="81.23" width="15" height="15"/></g><g id="Rectangle_3_copy_12"><rect x="97.73" y="64.73" width="15" height="15"/></g><g id="Rectangle_3_copy_13"><rect x="81.23" y="64.73" width="15" height="15"/></g><g id="Rectangle_3_copy_14"><rect x="64.73" y="31.73" width="15" height="15"/></g></g><g><path d="M164.36,79.81c-1.73,7.52-7.39,13.04-17.47,13.04-12.94,0-19.19-9.38-19.19-21.19s6.39-21.6,19.55-21.6c10.65,0,16,6.19,17.09,13.15h-7.81c-1.08-3.66-3.58-6.94-9.55-6.94-8.02,0-11.19,7.25-11.19,15.11,0,7.42,2.86,15.25,11.44,15.25,6.06,0,8.24-3.85,9.29-6.83h7.85Z"/><path d="M178.68,81.68l-3.67,10.6h-7.7l14.37-41.62h9.76l14.99,41.62h-8.23l-3.83-10.6h-15.69Zm13.93-6.47c-3.3-9.52-5.29-15.2-6.26-18.75h-.06c-1.02,3.91-3.22,10.61-5.88,18.75h12.19Z"/><path d="M212.16,92.28V50.66h9.83c5.46,9.48,16.23,27.65,18.29,32.18h.1c-.45-4.69-.43-11.69-.43-18.5v-13.68h7.15v41.62h-9.31c-4.82-8.44-16.46-28.8-18.71-33.56h-.1c.3,4.02,.37,12.06,.37,19.53v14.03h-7.19Z"/><path d="M281.16,48.01v35.63c0,2.88,0,5.67,.06,8.65h-3.87c-.13-.76-.21-3.37-.22-4.73-1.5,3.45-4.75,5.45-9.88,5.45-7.83,0-12.59-6.37-12.59-15.52s5.15-16.21,13.45-16.21c5.74,0,8.15,2.4,9.01,4.23v-17.5h4.03Zm-22.27,29.34c0,7.85,3.93,12.09,8.93,12.09,7.58,0,9.47-5.38,9.47-12.89s-1.66-11.7-8.99-11.7c-5.7,0-9.41,4.53-9.41,12.49Z"/><path d="M291.53,62c5.56,16.03,8.23,23.59,9.16,26.77h.06c1.11-3.57,3.41-10.56,8.86-26.77h4.12l-11.16,31.87c-3.15,8.92-5.38,11.03-11.17,11.03-1.03,0-1.94-.06-3-.19v-3.72c.84,.11,1.71,.17,2.62,.17,4.12,0,5.54-1.92,7.58-7.62l-11.47-31.54h4.39Z"/></g><path class="cls-2" d="M97.03,31.73s1.95,3.8,2.26,4.21c.41,.72,.51,.92,1.44,.41,1.03-.62,1.95-1.13,1.95-1.13,0,0-1.44,6.48-1.65,7.2-.1,.72,.41,1.33,1.23,.62,.41-.31,2.88-3.08,3.08-3.29,0,0,.72,1.64,.93,1.95,.1,.21,.21,.31,.62,.21,.41-.1,3.19-.51,3.19-.51,0,0-.92,3.08-1.03,3.6-.1,.41-.21,1.13,1.23,1.75,0,0-5.65,4.93-6.06,5.24-.41,.41-.51,.51-.31,.92,.1,.41,.72,2.47,.72,2.47,0,0-5.45-1.23-6.06-1.34-.62-.21-.93,0-.93,.51v6.68s-1.23,0-1.23,0v-6.68c0-.51-.31-.72-.93-.51-.62,.1-6.06,1.34-6.06,1.34,0,0,.62-2.06,.72-2.47,.1-.41,0-.51-.41-.92-.41-.31-6.06-5.24-6.06-5.24,1.54-.62,1.44-1.34,1.34-1.75-.21-.51-1.13-3.6-1.13-3.6,0,0,2.88,.41,3.29,.51,.31,.1,.51,0,.62-.21,.21-.31,.93-1.95,.93-1.95,.21,.21,2.67,2.98,2.98,3.29,.92,.72,1.44,.1,1.23-.62-.1-.72-1.54-7.2-1.54-7.2,0,0,.93,.51,1.85,1.13,1.03,.51,1.13,.31,1.54-.41,.31-.41,2.26-4.22,2.26-4.22h0Z"/><rect class="cls-1" width="345.46" height="144.46"/></svg>